<?xml version="1.0" encoding="utf-8" ?>
<svg xmlns="http://www.w3.org/2000/svg" xmlns:xlink="http://www.w3.org/1999/xlink" width="600" height="200">
	<path fill="#FF8A8A" d="M100 50L100 50Q101.22743 50 102.45338 50.060226Q103.67934 50.120453 104.90086 50.240765Q106.12238 50.361073 107.33652 50.541172Q108.55066 50.721275 109.75451 50.960732Q110.95836 51.200188 112.149 51.498436Q113.33965 51.796677 114.51423 52.152985Q115.6888 52.509285 116.84448 52.922794Q118.00016 53.3363 119.13416 53.806015Q120.26816 54.275734 121.37774 54.800529Q122.48732 55.325321 123.56982 55.903931Q124.65232 56.482536 125.70512 57.11356Q126.75793 57.744587 127.7785 58.42651Q128.79909 59.108437 129.78497 59.839615Q130.77084 60.570793 131.71967 61.349472Q132.66849 62.128143 133.57794 62.952438Q134.4874 63.77673 135.35533 64.644653Q136.22324 65.512573 137.04755 66.422043Q137.87183 67.331512 138.65051 68.280334Q139.42918 69.229141 140.16037 70.215027Q140.89154 71.200905 141.57347 72.221481Q142.2554 73.24205 142.88643 74.294853Q143.51746 75.347656 144.09607 76.430153Q144.67467 77.51265 145.19946 78.622231Q145.72424 79.731812 146.19397 80.865814Q146.6637 81.999817 147.07719 83.155502Q147.49071 84.31118 147.84702 85.485764Q148.20331 86.660339 148.50156 87.850983Q148.7998 89.041626 149.03926 90.245476Q149.27872 91.449326 149.45883 92.663467Q149.63893 93.877617 149.75925 95.099136Q149.87955 96.320656 149.93977 97.546616Q150 98.772568 150 100L150 100Q150 101.22743 149.93977 102.45338Q149.87955 103.67934 149.75925 104.90086Q149.63892 106.12238 149.45882 107.33652Q149.27872 108.55066 149.03925 109.75451Q148.79979 110.95836 148.50156 112.149Q148.20331 113.33965 147.84702 114.51423Q147.49071 115.6888 147.07719 116.84448Q146.66368 118.00016 146.19395 119.13416Q145.72424 120.26816 145.19946 121.37774Q144.67465 122.48732 144.09605 123.56982Q143.51746 124.65232 142.88641 125.70512Q142.2554 126.75793 141.57347 127.7785Q140.89154 128.79909 140.16037 129.78497Q139.42918 130.77084 138.65051 131.71967Q137.87183 132.66849 137.04755 133.57794Q136.22324 134.4874 135.35533 135.35533Q134.4874 136.22324 133.57794 137.04755Q132.66849 137.87183 131.71967 138.65051Q130.77084 139.42918 129.78496 140.16037Q128.79907 140.89154 127.7785 141.57347Q126.75793 142.2554 125.70512 142.88643Q124.65232 143.51746 123.56982 144.09607Q122.48732 144.67467 121.37773 145.19946Q120.26816 145.72424 119.13416 146.19397Q118.00016 146.6637 116.84448 147.07719Q115.6888 147.49071 114.51423 147.84702Q113.33965 148.20331 112.149 148.50156Q110.95836 148.7998 109.75451 149.03926Q108.55066 149.27872 107.33652 149.45883Q106.12238 149.63893 104.90086 149.75925Q103.67934 149.87955 102.45338 149.93977Q101.22743 150 100 150L100 150Q98.772568 150 97.546616 149.93977Q96.320663 149.87955 95.099144 149.75925Q93.877617 149.63892 92.663467 149.45882Q91.449318 149.27872 90.245468 149.03925Q89.041626 148.79979 87.850975 148.50156Q86.660339 148.20331 85.485756 147.84702Q84.311172 147.49071 83.155495 147.07719Q81.999817 146.66368 80.865814 146.19395Q79.731812 145.72424 78.622223 145.19946Q77.51265 144.67465 76.430153 144.09605Q75.347656 143.51746 74.294853 142.88641Q73.24205 142.2554 72.221481 141.57347Q71.200905 140.89154 70.215027 140.16037Q69.229141 139.42918 68.280334 138.65051Q67.331512 137.87183 66.422043 137.04755Q65.512573 136.22324 64.644653 135.35533Q63.77673 134.4874 62.952438 133.57794Q62.128143 132.66849 61.349472 131.71967Q60.570793 130.77084 59.839615 129.78496Q59.108437 128.79907 58.42651 127.7785Q57.744587 126.75793 57.113564 125.70512Q56.482536 124.65232 55.903931 123.56982Q55.325321 122.48732 54.800526 121.37773Q54.275734 120.26816 53.806015 119.13416Q53.336296 118.00016 52.922791 116.84448Q52.509285 115.6888 52.152981 114.51423Q51.796677 113.33965 51.498432 112.149Q51.200188 110.95836 50.960732 109.75451Q50.721272 108.55066 50.541168 107.33652Q50.361069 106.12238 50.240761 104.90086Q50.120453 103.67934 50.060226 102.45338Q50 101.22743 50 100L50 100Q50 98.772568 50.060226 97.546616Q50.120453 96.320663 50.240765 95.099144Q50.361069 93.877617 50.541168 92.663467Q50.721268 91.449318 50.960728 90.245468Q51.200188 89.041626 51.498428 87.850975Q51.796673 86.660339 52.152977 85.485756Q52.509281 84.311172 52.922791 83.155495Q53.336296 81.999817 53.806015 80.865814Q54.275734 79.731812 54.800529 78.622223Q55.325321 77.51265 55.903931 76.430153Q56.482536 75.347656 57.11356 74.294853Q57.744587 73.24205 58.42651 72.221481Q59.108437 71.200905 59.839615 70.215027Q60.570793 69.229141 61.349472 68.280334Q62.128143 67.331512 62.952438 66.422043Q63.77673 65.512573 64.644653 64.644653Q65.512573 63.77673 66.422043 62.952438Q67.331512 62.128143 68.280334 61.349472Q69.229141 60.570793 70.215027 59.839615Q71.200905 59.108437 72.221481 58.42651Q73.24205 57.744587 74.294853 57.113564Q75.347656 56.482536 76.430153 55.903931Q77.51265 55.325321 78.622231 54.800526Q79.731812 54.275734 80.865814 53.806015Q81.999817 53.3363 83.155502 52.922791Q84.31118 52.509285 85.485764 52.152981Q86.660339 51.796677 87.850983 51.498432Q89.041626 51.200195 90.245476 50.960735Q91.449326 50.721275 92.663467 50.541176Q93.877617 50.361076 95.099136 50.240768Q96.320656 50.120453 97.546616 50.060226Q98.772568 50 100 50Z"/>
	<path fill="#D39EA4" d="M150 50L150 50Q151.22745 50 152.4534 50.060226Q153.67935 50.120453 154.90086 50.240765Q156.12238 50.361073 157.33652 50.541172Q158.55066 50.721275 159.7545 50.960732Q160.95834 51.200188 162.149 51.498436Q163.33965 51.796677 164.51422 52.152985Q165.6888 52.509285 166.84448 52.922794Q168.00015 53.3363 169.13416 53.806015Q170.26814 54.275734 171.37773 54.800529Q172.48732 55.325321 173.56982 55.903931Q174.65231 56.482536 175.70511 57.11356Q176.7579 57.744587 177.77849 58.42651Q178.79907 59.108437 179.78496 59.839615Q180.77084 60.570793 181.71965 61.349472Q182.66847 62.128143 183.57794 62.952438Q184.4874 63.77673 185.35533 64.644653Q186.22327 65.512573 187.04756 66.422043Q187.87186 67.331512 188.65053 68.280334Q189.42918 69.229141 190.16035 70.215027Q190.89154 71.200905 191.57346 72.221481Q192.25539 73.24205 192.88641 74.294853Q193.51743 75.347656 194.09604 76.430153Q194.67464 77.51265 195.19943 78.622231Q195.72423 79.731812 196.19395 80.865814Q196.66367 81.999817 197.07716 83.155502Q197.49068 84.31118 197.84698 85.485764Q198.20328 86.660339 198.50153 87.850983Q198.79977 89.041626 199.03925 90.245476Q199.2787 91.449326 199.4588 92.663467Q199.63892 93.877617 199.75922 95.099136Q199.87953 96.320656 199.93976 97.546616Q200 98.772568 200 100L200 100Q200 101.22743 199.93976 102.45338Q199.87955 103.67934 199.75923 104.90086Q199.63892 106.12238 199.4588 107.33652Q199.27869 108.55066 199.03923 109.75451Q198.79977 110.95836 198.50153 112.149Q198.20328 113.33965 197.84698 114.51423Q197.49066 115.6888 197.07715 116.84448Q196.66365 118.00016 196.19394 119.13416Q195.72421 120.26816 195.19943 121.37774Q194.67462 122.48732 194.09604 123.56982Q193.51743 124.65232 192.8864 125.70512Q192.25537 126.75793 191.57344 127.7785Q190.89151 128.79909 190.16034 129.78497Q189.42917 130.77084 188.6505 131.71967Q187.87183 132.66849 187.04755 133.57794Q186.22324 134.4874 185.35532 135.35533Q184.4874 136.22324 183.57793 137.04755Q182.66846 137.87183 181.71965 138.65051Q180.77083 139.42918 179.78494 140.16037Q178.79906 140.89154 177.77849 141.57347Q176.7579 142.2554 175.70511 142.88643Q174.65231 143.51746 173.56982 144.09607Q172.48732 144.67467 171.37773 145.19946Q170.26814 145.72424 169.13416 146.19397Q168.00015 146.6637 166.84447 147.07719Q165.6888 147.49071 164.51422 147.84702Q163.33965 148.20331 162.149 148.50156Q160.95834 148.7998 159.7545 149.03926Q158.55066 149.27872 157.33652 149.45883Q156.12238 149.63893 154.90086 149.75925Q153.67935 149.87955 152.4534 149.93977Q151.22745 150 150 150L150 150Q148.77258 150 147.54663 149.93977Q146.32068 149.87955 145.09915 149.75925Q143.87762 149.63892 142.66348 149.45882Q141.44934 149.27872 140.24548 149.03925Q139.04163 148.79979 137.85098 148.50156Q136.66034 148.20331 135.48576 147.84702Q134.31119 147.49071 133.1555 147.07719Q131.99982 146.66368 130.86581 146.19395Q129.73181 145.72424 128.62222 145.19946Q127.51265 144.67465 126.43016 144.09605Q125.34766 143.51746 124.29485 142.88641Q123.24205 142.2554 122.22148 141.57347Q121.20091 140.89154 120.21503 140.16037Q119.22914 139.42918 118.28033 138.65051Q117.33151 137.87183 116.42204 137.04755Q115.51257 136.22324 114.64465 135.35533Q113.77673 134.4874 112.95243 133.57794Q112.12814 132.66849 111.34947 131.71967Q110.57079 130.77084 109.83961 129.78496Q109.10843 128.79907 108.42651 127.7785Q107.74458 126.75793 107.11356 125.70512Q106.48254 124.65232 105.90393 123.56982Q105.32532 122.48732 104.80052 121.37773Q104.27573 120.26816 103.80601 119.13416Q103.33629 118.00016 102.92278 116.84448Q102.50927 115.6888 102.15297 114.51423Q101.79666 113.33965 101.49841 112.149Q101.20018 110.95836 100.96072 109.75451Q100.72127 108.55066 100.54116 107.33652Q100.36106 106.12238 100.24075 104.90086Q100.12045 103.67934 100.06023 102.45338Q100 101.22743 100 100L100 100Q100 98.772568 100.06023 97.546616Q100.12045 96.320663 100.24077 95.099144Q100.36107 93.877617 100.54117 92.663467Q100.72127 91.449318 100.96072 90.245468Q101.20018 89.041626 101.49843 87.850975Q101.79666 86.660339 102.15298 85.485756Q102.50928 84.311172 102.92278 83.155495Q103.33629 81.999817 103.80601 80.865814Q104.27573 79.731812 104.80052 78.622223Q105.32532 77.51265 105.90393 76.430153Q106.48254 75.347656 107.11356 74.294853Q107.74458 73.24205 108.42651 72.221481Q109.10843 71.200905 109.83961 70.215027Q110.57079 69.229141 111.34947 68.280334Q112.12814 67.331512 112.95244 66.422043Q113.77673 65.512573 114.64465 64.644653Q115.51257 63.77673 116.42204 62.952438Q117.33151 62.128143 118.28033 61.349472Q119.22914 60.570793 120.21503 59.839615Q121.2009 59.108437 122.22147 58.42651Q123.24205 57.744587 124.29485 57.113564Q125.34766 56.482536 126.43016 55.903931Q127.51265 55.325321 128.62222 54.800526Q129.73181 54.275734 130.86581 53.806015Q131.99982 53.3363 133.1555 52.922791Q134.31119 52.509285 135.48576 52.152981Q136.66034 51.796677 137.85098 51.498432Q139.04163 51.200195 140.24548 50.960735Q141.44934 50.721275 142.66348 50.541176Q143.87762 50.361076 145.09915 50.240768Q146.32068 50.120453 147.54663 50.060226Q148.77258 50 150 50Z"/>
	<path fill="#A7B2BE" d="M200 50L200 50Q201.22742 50 202.45337 50.060226Q203.67932 50.120453 204.90085 50.240765Q206.12238 50.361073 207.33652 50.541172Q208.55066 50.721275 209.7545 50.960732Q210.95834 51.200188 212.14899 51.498436Q213.33963 51.796677 214.51422 52.152985Q215.68881 52.509285 216.84448 52.922794Q218.00015 53.3363 219.13416 53.806015Q220.26816 54.275734 221.37773 54.800529Q222.48732 55.325321 223.56982 55.903931Q224.65231 56.482536 225.70509 57.11356Q226.7579 57.744587 227.77847 58.42651Q228.79904 59.108437 229.78493 59.839615Q230.77081 60.570793 231.71964 61.349472Q232.66846 62.128143 233.57793 62.952438Q234.4874 63.77673 235.35532 64.644653Q236.22324 65.512573 237.04753 66.422043Q237.87183 67.331512 238.6505 68.280334Q239.42917 69.229141 240.16034 70.215027Q240.89151 71.200905 241.57344 72.221481Q242.25537 73.24205 242.88638 74.294853Q243.51743 75.347656 244.09604 76.430153Q244.67464 77.51265 245.19943 78.622231Q245.72421 79.731812 246.19394 80.865814Q246.66367 81.999817 247.07716 83.155502Q247.49069 84.31118 247.847 85.485764Q248.20331 86.660339 248.50154 87.850983Q248.79977 89.041626 249.03925 90.245476Q249.2787 91.449326 249.4588 92.663467Q249.63892 93.877617 249.75925 95.099136Q249.87955 96.320656 249.93976 97.546616Q250 98.772568 250 100L250 100Q250 101.22743 249.93976 102.45338Q249.87955 103.67934 249.75925 104.90086Q249.63892 106.12238 249.45882 107.33652Q249.2787 108.55066 249.03925 109.75451Q248.79977 110.95836 248.50154 112.149Q248.20331 113.33965 247.847 114.51423Q247.49069 115.6888 247.07716 116.84448Q246.66367 118.00016 246.19394 119.13416Q245.72421 120.26816 245.19943 121.37774Q244.67464 122.48732 244.09604 123.56982Q243.51743 124.65232 242.88638 125.70512Q242.25537 126.75793 241.57344 127.7785Q240.89151 128.79909 240.16034 129.78497Q239.42917 130.77084 238.6505 131.71967Q237.87183 132.66849 237.04753 133.57794Q236.22324 134.4874 235.35532 135.35533Q234.4874 136.22324 233.57794 137.04755Q232.66846 137.87183 231.71965 138.65051Q230.77081 139.42918 229.78494 140.16037Q228.79904 140.89154 227.77849 141.57347Q226.7579 142.2554 225.70509 142.88643Q224.65231 143.51746 223.56982 144.09607Q222.48732 144.67467 221.37775 145.19946Q220.26816 145.72424 219.13416 146.19397Q218.00015 146.6637 216.84448 147.07719Q215.68881 147.49071 214.51422 147.84702Q213.33963 148.20331 212.149 148.50156Q210.95834 148.7998 209.7545 149.03926Q208.55066 149.27872 207.33652 149.45883Q206.12238 149.63893 204.90085 149.75925Q203.67932 149.87955 202.45337 149.93977Q201.22742 150 200 150L200 150Q198.77255 150 197.5466 149.93977Q196.32065 149.87955 195.09912 149.75925Q193.87759 149.63892 192.66345 149.45882Q191.44931 149.27872 190.24547 149.03925Q189.04163 148.79979 187.85098 148.50156Q186.66032 148.20331 185.48575 147.84702Q184.31116 147.49071 183.15549 147.07719Q181.9998 146.66368 180.8658 146.19395Q179.73181 145.72424 178.62222 145.19946Q177.51265 144.67465 176.43016 144.09605Q175.34766 143.51746 174.29485 142.88641Q173.24203 142.2554 172.22147 141.57347Q171.2009 140.89154 170.21503 140.16037Q169.22916 139.42918 168.28033 138.65051Q167.33151 137.87183 166.42204 137.04755Q165.51257 136.22324 164.64465 135.35533Q163.77673 134.4874 162.95244 133.57794Q162.12814 132.66849 161.34947 131.71967Q160.5708 130.77084 159.83961 129.78496Q159.10844 128.79907 158.42651 127.7785Q157.7446 126.75793 157.11356 125.70512Q156.48254 124.65232 155.90393 123.56982Q155.32532 122.48732 154.80051 121.37773Q154.27571 120.26816 153.806 119.13416Q153.33627 118.00016 152.92276 116.84448Q152.50926 115.6888 152.15297 114.51423Q151.79666 113.33965 151.49843 112.149Q151.2002 110.95836 150.96072 109.75451Q150.72128 108.55066 150.54117 107.33652Q150.36108 106.12238 150.24077 104.90086Q150.12045 103.67934 150.06023 102.45338Q150 101.22743 150 100L150 100Q150 98.772568 150.06023 97.546616Q150.12045 96.320663 150.24077 95.099144Q150.36108 93.877617 150.54117 92.663467Q150.72128 91.449318 150.96072 90.245468Q151.2002 89.041626 151.49843 87.850975Q151.79666 86.660339 152.15297 85.485756Q152.50926 84.311172 152.92276 83.155495Q153.33627 81.999817 153.806 80.865814Q154.27571 79.731812 154.80051 78.622223Q155.32532 77.51265 155.90393 76.430153Q156.48254 75.347656 157.11356 74.294853Q157.7446 73.24205 158.42651 72.221481Q159.10844 71.200905 159.83963 70.215027Q160.5708 69.229141 161.34949 68.280334Q162.12814 67.331512 162.95244 66.422043Q163.77673 65.512573 164.64465 64.644653Q165.51257 63.77673 166.42204 62.952438Q167.33151 62.128143 168.28032 61.349472Q169.22914 60.570793 170.21503 59.839615Q171.2009 59.108437 172.22147 58.42651Q173.24203 57.744587 174.29483 57.113564Q175.34766 56.482536 176.43015 55.903931Q177.51265 55.325321 178.62224 54.800526Q179.73181 54.275734 180.86581 53.806015Q181.99982 53.3363 183.1555 52.922791Q184.31117 52.509285 185.48575 52.152981Q186.66032 51.796677 187.85097 51.498432Q189.04163 51.200195 190.24547 50.960735Q191.44931 50.721275 192.66345 50.541176Q193.87759 50.361076 195.09912 50.240768Q196.32065 50.120453 197.5466 50.060226Q198.77255 50 200 50Z"/>
	<path fill="#7CC6D8" d="M250 50L250 50Q251.22743 50 252.4534 50.060226Q253.67935 50.120453 254.90088 50.240765Q256.12241 50.361073 257.33655 50.541172Q258.55066 50.721275 259.75452 50.960732Q260.95837 51.200188 262.14905 51.498436Q263.33966 51.796677 264.51425 52.152985Q265.68881 52.509285 266.84448 52.922794Q268.00015 53.3363 269.13416 53.806015Q270.26813 54.275734 271.37775 54.800529Q272.4873 55.325321 273.56982 55.903931Q274.65231 56.482536 275.70511 57.11356Q276.7579 57.744587 277.77847 58.42651Q278.79904 59.108437 279.78494 59.839615Q280.77081 60.570793 281.71967 61.349472Q282.66846 62.128143 283.57794 62.952438Q284.4874 63.77673 285.35532 64.644653Q286.22324 65.512573 287.04752 66.422043Q287.87183 67.331512 288.65048 68.280334Q289.42914 69.229141 290.16034 70.215027Q290.89148 71.200905 291.57343 72.221481Q292.25534 73.24205 292.88635 74.294853Q293.5174 75.347656 294.09604 76.430153Q294.67462 77.51265 295.19943 78.622231Q295.72424 79.731812 296.19394 80.865814Q296.66367 81.999817 297.07718 83.155502Q297.49066 84.31118 297.84698 85.485764Q298.20331 86.660339 298.50156 87.850983Q298.7998 89.041626 299.03925 90.245476Q299.27872 91.449326 299.4588 92.663467Q299.63892 93.877617 299.75925 95.099136Q299.87955 96.320656 299.93976 97.546616Q300 98.772568 300 100L300 100Q300 101.22743 299.93976 102.45338Q299.87955 103.67934 299.75925 104.90086Q299.63892 106.12238 299.45883 107.33652Q299.27872 108.55066 299.03925 109.75451Q298.7998 110.95836 298.50156 112.149Q298.20331 113.33965 297.84698 114.51423Q297.49066 115.6888 297.07718 116.84448Q296.66367 118.00016 296.19394 119.13416Q295.72424 120.26816 295.19943 121.37774Q294.67462 122.48732 294.09604 123.56982Q293.5174 124.65232 292.88638 125.70512Q292.25534 126.75793 291.57343 127.7785Q290.89148 128.79909 290.16034 129.78497Q289.42917 130.77084 288.65051 131.71967Q287.87183 132.66849 287.04755 133.57794Q286.22324 134.4874 285.35532 135.35533Q284.4874 136.22324 283.57794 137.04755Q282.66846 137.87183 281.71964 138.65051Q280.77081 139.42918 279.78491 140.16037Q278.79904 140.89154 277.77847 141.57347Q276.7579 142.2554 275.70511 142.88643Q274.65231 143.51746 273.56982 144.09607Q272.4873 144.67467 271.37775 145.19946Q270.26813 145.72424 269.13416 146.19397Q268.00015 146.6637 266.84448 147.07719Q265.68881 147.49071 264.51425 147.84702Q263.33966 148.20331 262.14902 148.50156Q260.95837 148.7998 259.75452 149.03926Q258.55066 149.27872 257.33652 149.45883Q256.12241 149.63893 254.90088 149.75925Q253.67935 149.87955 252.45338 149.93977Q251.22743 150 250 150L250 150Q248.77257 150 247.54663 149.93977Q246.32068 149.87955 245.09915 149.75925Q243.87762 149.63892 242.66348 149.45882Q241.44931 149.27872 240.24547 149.03925Q239.04163 148.79979 237.85098 148.50156Q236.66032 148.20331 235.48575 147.84702Q234.31117 147.49071 233.1555 147.07719Q231.99982 146.66368 230.86581 146.19395Q229.73181 145.72424 228.62222 145.19946Q227.51265 144.67465 226.43016 144.09605Q225.34766 143.51746 224.29483 142.88641Q223.24203 142.2554 222.22147 141.57347Q221.2009 140.89154 220.21503 140.16037Q219.22914 139.42918 218.28033 138.65051Q217.33151 137.87183 216.42204 137.04755Q215.51257 136.22324 214.64465 135.35533Q213.77673 134.4874 212.95245 133.57794Q212.12816 132.66849 211.34949 131.71967Q210.5708 130.77084 209.8396 129.78496Q209.10843 128.79907 208.4265 127.7785Q207.74457 126.75793 207.11354 125.70512Q206.48253 124.65232 205.90393 123.56982Q205.32532 122.48732 204.80051 121.37773Q204.27571 120.26816 203.806 119.13416Q203.33627 118.00016 202.92278 116.84448Q202.50926 115.6888 202.15297 114.51423Q201.79666 113.33965 201.49841 112.149Q201.20016 110.95836 200.96071 109.75451Q200.72125 108.55066 200.54114 107.33652Q200.36105 106.12238 200.24075 104.90086Q200.12045 103.67934 200.06021 102.45338Q200 101.22743 200 100L200 100Q200 98.772568 200.06023 97.546616Q200.12045 96.320663 200.24077 95.099144Q200.36105 93.877617 200.54115 92.663467Q200.72125 91.449318 200.96071 90.245468Q201.20016 89.041626 201.4984 87.850975Q201.79663 86.660339 202.15295 85.485756Q202.50925 84.311172 202.92276 83.155495Q203.33627 81.999817 203.80598 80.865814Q204.2757 79.731812 204.80051 78.622223Q205.32529 77.51265 205.9039 76.430153Q206.48251 75.347656 207.11354 74.294853Q207.74457 73.24205 208.42648 72.221481Q209.1084 71.200905 209.83958 70.215027Q210.57077 69.229141 211.34946 68.280334Q212.12814 67.331512 212.95242 66.422043Q213.77672 65.512573 214.64464 64.644653Q215.51257 63.77673 216.42203 62.952438Q217.33151 62.128143 218.28033 61.349472Q219.22914 60.570793 220.21503 59.839615Q221.2009 59.108437 222.22147 58.42651Q223.24203 57.744587 224.29485 57.113564Q225.34764 56.482536 226.43015 55.903931Q227.51263 55.325321 228.62224 54.800526Q229.73181 54.275734 230.86581 53.806015Q231.99982 53.3363 233.15549 52.922791Q234.31117 52.509285 235.48575 52.152981Q236.66032 51.796677 237.85098 51.498432Q239.04161 51.200195 240.24545 50.960735Q241.44931 50.721275 242.66345 50.541176Q243.87762 50.361076 245.09915 50.240768Q246.32068 50.120453 247.54662 50.060226Q248.77257 50 250 50Z"/>
	<path fill="#50DAF2" d="M300 50L300 50Q301.22742 50 302.45337 50.060226Q303.67932 50.120453 304.90085 50.240765Q306.12238 50.361073 307.33649 50.541172Q308.5506 50.721275 309.75446 50.960732Q310.95828 51.200188 312.14893 51.498436Q313.33957 51.796677 314.51416 52.152985Q315.68872 52.509285 316.84442 52.922794Q318.00012 53.3363 319.13409 53.806015Q320.26807 54.275734 321.37766 54.800529Q322.48724 55.325321 323.56976 55.903931Q324.65225 56.482536 325.70505 57.11356Q326.75787 57.744587 327.77844 58.42651Q328.79901 59.108437 329.78491 59.839615Q330.77078 60.570793 331.7196 61.349472Q332.66843 62.128143 333.57788 62.952438Q334.48737 63.77673 335.35529 64.644653Q336.22321 65.512573 337.04749 66.422043Q337.8718 67.331512 338.65048 68.280334Q339.42914 69.229141 340.16034 70.215027Q340.89151 71.200905 341.57343 72.221481Q342.25537 73.24205 342.88641 74.294853Q343.51746 75.347656 344.09607 76.430153Q344.67468 77.51265 345.19946 78.622231Q345.72424 79.731812 346.19394 80.865814Q346.66367 81.999817 347.07718 83.155502Q347.49069 84.31118 347.84698 85.485764Q348.20331 86.660339 348.50153 87.850983Q348.7998 89.041626 349.03925 90.245476Q349.27872 91.449326 349.4588 92.663467Q349.63892 93.877617 349.75925 95.099136Q349.87952 96.320656 349.93976 97.546616Q350 98.772568 350 100L350 100Q350 101.22743 349.93976 102.45338Q349.87952 103.67934 349.75922 104.90086Q349.63892 106.12238 349.4588 107.33652Q349.27872 108.55066 349.03925 109.75451Q348.7998 110.95836 348.50156 112.149Q348.20331 113.33965 347.84698 114.51423Q347.49069 115.6888 347.07718 116.84448Q346.66367 118.00016 346.19394 119.13416Q345.72424 120.26816 345.19946 121.37774Q344.67465 122.48732 344.09604 123.56982Q343.51743 124.65232 342.88641 125.70512Q342.25537 126.75793 341.57343 127.7785Q340.89154 128.79909 340.16037 129.78497Q339.4292 130.77084 338.65051 131.71967Q337.87183 132.66849 337.04752 133.57794Q336.22324 134.4874 335.35532 135.35533Q334.4874 136.22324 333.57794 137.04755Q332.66846 137.87183 331.71967 138.65051Q330.77081 139.42918 329.78491 140.16037Q328.79901 140.89154 327.77844 141.57347Q326.75787 142.2554 325.70505 142.88643Q324.65225 143.51746 323.56976 144.09607Q322.48724 144.67467 321.37769 145.19946Q320.2681 145.72424 319.13409 146.19397Q318.00012 146.6637 316.84442 147.07719Q315.68875 147.49071 314.51419 147.84702Q313.3396 148.20331 312.14893 148.50156Q310.95828 148.7998 309.75446 149.03926Q308.5506 149.27872 307.33649 149.45883Q306.12234 149.63893 304.90082 149.75925Q303.67932 149.87955 302.45337 149.93977Q301.22742 150 300 150L300 150Q298.77258 150 297.54663 149.93977Q296.32068 149.87955 295.09915 149.75925Q293.87762 149.63892 292.66345 149.45882Q291.44928 149.27872 290.24545 149.03925Q289.0416 148.79979 287.85095 148.50156Q286.66031 148.20331 285.48575 147.84702Q284.31116 147.49071 283.15549 147.07719Q281.99982 146.66368 280.86578 146.19395Q279.73178 145.72424 278.62219 145.19946Q277.51263 144.67465 276.43018 144.09605Q275.34766 143.51746 274.29486 142.88641Q273.24203 142.2554 272.22147 141.57347Q271.20087 140.89154 270.215 140.16037Q269.22913 139.42918 268.28033 138.65051Q267.33148 137.87183 266.42206 137.04755Q265.51257 136.22324 264.64465 135.35533Q263.77673 134.4874 262.95245 133.57794Q262.12817 132.66849 261.34949 131.71967Q260.5708 130.77084 259.8396 129.78496Q259.10843 128.79907 258.42648 127.7785Q257.74457 126.75793 257.11356 125.70512Q256.48254 124.65232 255.90393 123.56982Q255.32532 122.48732 254.80052 121.37773Q254.27573 120.26816 253.806 119.13416Q253.33627 118.00016 252.92278 116.84448Q252.50928 115.6888 252.15297 114.51423Q251.79666 113.33965 251.49841 112.149Q251.20018 110.95836 250.96072 109.75451Q250.72127 108.55066 250.54117 107.33652Q250.36108 106.12238 250.24077 104.90086Q250.12045 103.67934 250.06021 102.45338Q250 101.22743 250 100L250 100Q250 98.772568 250.06021 97.546616Q250.12045 96.320663 250.24077 95.099144Q250.36108 93.877617 250.54117 92.663467Q250.72127 91.449318 250.96072 90.245468Q251.20018 89.041626 251.49843 87.850975Q251.79666 86.660339 252.15298 85.485756Q252.50928 84.311172 252.92278 83.155495Q253.33627 81.999817 253.806 80.865814Q254.27573 79.731812 254.80051 78.622223Q255.32532 77.51265 255.90393 76.430153Q256.48254 75.347656 257.11353 74.294853Q257.74457 73.24205 258.42648 72.221481Q259.1084 71.200905 259.8396 70.215027Q260.5708 69.229141 261.34946 68.280334Q262.12811 67.331512 262.95242 66.422043Q263.7767 65.512573 264.64462 64.644653Q265.51254 63.77673 266.42203 62.952438Q267.33148 62.128143 268.28033 61.349472Q269.22913 60.570793 270.215 59.839615Q271.20087 59.108437 272.22147 58.42651Q273.24203 57.744587 274.29483 57.113564Q275.34766 56.482536 276.43015 55.903931Q277.51263 55.325321 278.62219 54.800526Q279.73178 54.275734 280.86578 53.806015Q281.99982 53.3363 283.15549 52.922791Q284.31116 52.509285 285.48575 52.152981Q286.66031 51.796677 287.85095 51.498432Q289.0416 51.200195 290.24545 50.960735Q291.44928 50.721275 292.66345 50.541176Q293.87759 50.361076 295.09912 50.240768Q296.32065 50.120453 297.5466 50.060226Q298.77258 50 300 50Z"/>
</svg>